<?xml version="1.0" encoding="utf-8" standalone="no"?>
<!DOCTYPE svg PUBLIC "-//W3C//DTD SVG 1.1//EN"
  "http://www.w3.org/Graphics/SVG/1.1/DTD/svg11.dtd">
<svg xmlns:xlink="http://www.w3.org/1999/xlink" width="708.58875pt" height="564.615pt" viewBox="0 0 708.58875 564.615" xmlns="http://www.w3.org/2000/svg" version="1.1">
 <metadata>
  <rdf:RDF xmlns:dc="http://purl.org/dc/elements/1.1/" xmlns:cc="http://creativecommons.org/ns#" xmlns:rdf="http://www.w3.org/1999/02/22-rdf-syntax-ns#">
   <cc:Work>
    <dc:type rdf:resource="http://purl.org/dc/dcmitype/StillImage"/>
    <dc:date>2026-06-18T19:31:10.284357</dc:date>
    <dc:format>image/svg+xml</dc:format>
    <dc:creator>
     <cc:Agent>
      <dc:title>Matplotlib v3.10.8, https://matplotlib.org/</dc:title>
     </cc:Agent>
    </dc:creator>
   </cc:Work>
  </rdf:RDF>
 </metadata>
 <defs>
  <style type="text/css">*{stroke-linejoin: round; stroke-linecap: butt}</style>
 </defs>
 <g id="figure_1">
  <g id="patch_1">
   <path d="M -0 564.615 
L 708.58875 564.615 
L 708.58875 0 
L -0 0 
L -0 564.615 
z
" style="fill: none"/>
  </g>
  <g id="axes_1">
   <g id="patch_2">
    <path d="M 67.274375 261.5425 
L 701.38875 261.5425 
L 701.38875 25.3575 
L 67.274375 25.3575 
L 67.274375 261.5425 
z
" style="fill: none"/>
   </g>
   <g id="FillBetweenPolyCollection_1">
    <defs>
     <path id="m04272f12ab" d="M 96.097756 -522.203722 
L 96.097756 -498.704842 
L 101.536129 -490.991962 
L 106.974503 -487.897573 
L 112.412877 -485.209612 
L 117.851251 -482.863418 
L 123.289624 -478.623644 
L 128.727998 -476.314398 
L 134.166372 -474.457765 
L 139.604745 -470.31036 
L 145.043119 -466.477013 
L 150.481493 -462.87459 
L 155.919867 -459.456907 
L 161.35824 -455.799062 
L 166.796614 -452.31672 
L 172.234988 -448.695824 
L 177.673361 -443.22753 
L 183.111735 -441.223105 
L 188.550109 -435.034328 
L 193.988483 -431.237928 
L 199.426856 -427.635506 
L 204.86523 -423.940713 
L 210.303604 -420.024233 
L 215.741977 -416.375625 
L 221.180351 -412.782439 
L 226.618725 -409.38323 
L 232.057099 -405.984021 
L 237.495472 -402.677181 
L 242.933846 -399.545845 
L 248.37222 -396.248242 
L 253.810593 -394.72414 
L 259.248967 -390.484366 
L 264.687341 -386.992787 
L 270.125715 -384.120085 
L 275.564088 -381.247384 
L 281.002462 -378.68874 
L 286.440836 -375.668247 
L 291.879209 -372.703176 
L 297.317583 -370.107584 
L 302.755957 -367.899946 
L 308.194331 -365.036482 
L 313.632704 -361.406348 
L 319.071078 -360.122407 
L 324.509452 -358.06256 
L 329.947825 -355.069778 
L 335.386199 -353.859734 
L 340.824573 -351.929205 
L 346.262947 -349.850884 
L 351.70132 -348.095857 
L 357.139694 -346.350068 
L 362.578068 -343.893031 
L 368.016441 -342.313507 
L 373.454815 -341.472942 
L 378.893189 -339.939603 
L 384.331563 -338.046021 
L 389.769936 -336.762081 
L 395.20831 -335.810672 
L 400.646684 -333.917091 
L 406.085057 -333.381346 
L 411.523431 -332.337567 
L 416.961805 -331.533949 
L 422.400178 -329.732738 
L 427.838552 -328.605826 
L 433.276926 -327.506625 
L 438.7153 -326.795378 
L 444.153673 -325.834732 
L 449.592047 -325.114247 
L 455.030421 -321.872067 
L 460.468794 -320.431098 
L 465.907168 -315.646341 
L 471.345542 -313.84513 
L 476.783916 -313.808182 
L 482.222289 -320.846762 
L 487.660663 -325.243565 
L 493.099037 -332.226723 
L 498.53741 -337.824334 
L 503.975784 -343.477367 
L 509.414158 -350.2296 
L 514.852532 -355.864159 
L 520.290905 -360.667389 
L 525.729279 -367.33649 
L 531.167653 -373.054182 
L 536.606026 -378.68874 
L 542.0444 -384.517276 
L 547.482774 -390.244204 
L 552.921148 -395.971133 
L 558.359521 -401.605692 
L 563.797895 -408.339451 
L 569.236269 -413.151918 
L 574.674642 -418.952743 
L 580.113016 -425.631081 
L 585.55139 -431.441142 
L 590.989764 -437.084938 
L 596.428137 -442.996606 
L 601.866511 -448.806667 
L 607.304885 -454.533596 
L 612.743258 -460.352894 
L 618.181632 -466.172193 
L 623.620006 -471.132451 
L 629.05838 -474.180655 
L 634.496753 -478.983886 
L 639.935127 -483.417638 
L 645.373501 -487.02006 
L 650.811874 -492.00803 
L 656.250248 -495.425713 
L 661.688622 -500.127337 
L 667.126996 -503.655862 
L 672.565369 -503.655862 
L 672.565369 -528.521818 
L 672.565369 -528.521818 
L 667.126996 -528.521818 
L 661.688622 -523.552322 
L 656.250248 -517.539047 
L 650.811874 -512.458707 
L 645.373501 -505.623341 
L 639.935127 -500.727741 
L 634.496753 -494.816072 
L 629.05838 -487.980706 
L 623.620006 -482.715627 
L 618.181632 -478.069426 
L 612.743258 -474.097526 
L 607.304885 -470.125618 
L 601.866511 -466.430828 
L 596.428137 -462.634427 
L 590.989764 -459.124377 
L 585.55139 -455.531191 
L 580.113016 -451.73479 
L 574.674642 -447.882975 
L 569.236269 -444.446818 
L 563.797895 -442.054437 
L 558.359521 -438.99699 
L 552.921148 -435.948792 
L 547.482774 -433.362437 
L 542.0444 -430.776082 
L 536.606026 -428.476071 
L 531.167653 -425.427873 
L 525.729279 -423.017018 
L 520.290905 -420.633874 
L 514.852532 -418.78648 
L 509.414158 -417.585664 
L 503.975784 -416.024614 
L 498.53741 -416.135458 
L 493.099037 -416.745104 
L 487.660663 -416.338677 
L 482.222289 -403.73944 
L 476.783916 -387.131341 
L 471.345542 -389.865488 
L 465.907168 -390.835371 
L 460.468794 -394.363898 
L 455.030421 -393.10768 
L 449.592047 -392.267092 
L 444.153673 -393.578755 
L 438.7153 -395.019729 
L 433.276926 -395.416903 
L 427.838552 -395.795625 
L 422.400178 -396.70086 
L 416.961805 -401.365536 
L 411.523431 -397.236599 
L 406.085057 -399.887613 
L 400.646684 -401.753489 
L 395.20831 -402.076778 
L 389.769936 -400.571144 
L 384.331563 -401.873575 
L 378.893189 -406.445881 
L 373.454815 -406.390437 
L 368.016441 -405.180398 
L 362.578068 -408.404116 
L 357.139694 -409.641871 
L 351.70132 -409.374004 
L 346.262947 -410.759546 
L 340.824573 -414.223414 
L 335.386199 -415.802927 
L 329.947825 -414.96237 
L 324.509452 -417.696513 
L 319.071078 -420.439894 
L 313.632704 -421.372838 
L 308.194331 -424.762801 
L 302.755957 -425.039919 
L 297.317583 -429.113417 
L 291.879209 -431.321067 
L 286.440836 -433.528697 
L 281.002462 -434.757221 
L 275.564088 -437.371279 
L 270.125715 -440.410254 
L 264.687341 -442.895005 
L 259.248967 -444.576127 
L 253.810593 -448.649636 
L 248.37222 -449.896628 
L 242.933846 -452.141215 
L 237.495472 -454.921555 
L 232.057099 -457.341641 
L 226.618725 -459.669358 
L 221.180351 -462.366562 
L 215.741977 -465.054519 
L 210.303604 -467.871799 
L 204.86523 -470.236462 
L 199.426856 -473.377037 
L 193.988483 -476.240501 
L 188.550109 -478.909989 
L 183.111735 -483.436108 
L 177.673361 -484.941739 
L 172.234988 -489.634126 
L 166.796614 -492.109635 
L 161.35824 -494.723703 
L 155.919867 -497.531746 
L 150.481493 -500.949427 
L 145.043119 -503.812893 
L 139.604745 -506.445433 
L 134.166372 -509.133394 
L 128.727998 -510.786814 
L 123.289624 -511.987621 
L 117.851251 -514.767953 
L 112.412877 -516.116552 
L 106.974503 -517.123383 
L 101.536129 -517.908526 
L 96.097756 -522.203722 
z
"/>
    </defs>
    <g clip-path="url(#p37dacef932)">
     <use xlink:href="#m04272f12ab" x="0" y="564.615" style="fill: #1e90ff; fill-opacity: 0.3"/>
    </g>
   </g>
   <g id="matplotlib.axis_1">
    <g id="xtick_1">
     <g id="line2d_1">
      <path d="M 96.097756 261.5425 
L 96.097756 25.3575 
" clip-path="url(#p37dacef932)" style="fill: none; stroke-dasharray: 2.22,0.96; stroke-dashoffset: 0; stroke: #b0b0b0; stroke-opacity: 0.5; stroke-width: 0.6"/>
     </g>
     <g id="line2d_2">
      <defs>
       <path id="m70fb2c8da2" d="M 0 0 
L 0 8 
" style="stroke: #000000"/>
      </defs>
      <g>
       <use xlink:href="#m70fb2c8da2" x="96.097756" y="261.5425" style="stroke: #000000"/>
      </g>
     </g>
    </g>
    <g id="xtick_2">
     <g id="line2d_3">
      <path d="M 213.304081 261.5425 
L 213.304081 25.3575 
" clip-path="url(#p37dacef932)" style="fill: none; stroke-dasharray: 2.22,0.96; stroke-dashoffset: 0; stroke: #b0b0b0; stroke-opacity: 0.5; stroke-width: 0.6"/>
     </g>
     <g id="line2d_4">
      <g>
       <use xlink:href="#m70fb2c8da2" x="213.304081" y="261.5425" style="stroke: #000000"/>
      </g>
     </g>
    </g>
    <g id="xtick_3">
     <g id="line2d_5">
      <path d="M 330.510406 261.5425 
L 330.510406 25.3575 
" clip-path="url(#p37dacef932)" style="fill: none; stroke-dasharray: 2.22,0.96; stroke-dashoffset: 0; stroke: #b0b0b0; stroke-opacity: 0.5; stroke-width: 0.6"/>
     </g>
     <g id="line2d_6">
      <g>
       <use xlink:href="#m70fb2c8da2" x="330.510406" y="261.5425" style="stroke: #000000"/>
      </g>
     </g>
    </g>
    <g id="xtick_4">
     <g id="line2d_7">
      <path d="M 447.716731 261.5425 
L 447.716731 25.3575 
" clip-path="url(#p37dacef932)" style="fill: none; stroke-dasharray: 2.22,0.96; stroke-dashoffset: 0; stroke: #b0b0b0; stroke-opacity: 0.5; stroke-width: 0.6"/>
     </g>
     <g id="line2d_8">
      <g>
       <use xlink:href="#m70fb2c8da2" x="447.716731" y="261.5425" style="stroke: #000000"/>
      </g>
     </g>
    </g>
    <g id="xtick_5">
     <g id="line2d_9">
      <path d="M 564.923056 261.5425 
L 564.923056 25.3575 
" clip-path="url(#p37dacef932)" style="fill: none; stroke-dasharray: 2.22,0.96; stroke-dashoffset: 0; stroke: #b0b0b0; stroke-opacity: 0.5; stroke-width: 0.6"/>
     </g>
     <g id="line2d_10">
      <g>
       <use xlink:href="#m70fb2c8da2" x="564.923056" y="261.5425" style="stroke: #000000"/>
      </g>
     </g>
    </g>
    <g id="xtick_6">
     <g id="line2d_11">
      <path d="M 682.129381 261.5425 
L 682.129381 25.3575 
" clip-path="url(#p37dacef932)" style="fill: none; stroke-dasharray: 2.22,0.96; stroke-dashoffset: 0; stroke: #b0b0b0; stroke-opacity: 0.5; stroke-width: 0.6"/>
     </g>
     <g id="line2d_12">
      <g>
       <use xlink:href="#m70fb2c8da2" x="682.129381" y="261.5425" style="stroke: #000000"/>
      </g>
     </g>
    </g>
    <g id="xtick_7">
     <g id="line2d_13">
      <defs>
       <path id="m927490b5b4" d="M 0 0 
L 0 4 
" style="stroke: #000000; stroke-width: 0.7"/>
      </defs>
      <g>
       <use xlink:href="#m927490b5b4" x="72.656491" y="261.5425" style="stroke: #000000; stroke-width: 0.7"/>
      </g>
     </g>
    </g>
    <g id="xtick_8">
     <g id="line2d_14">
      <g>
       <use xlink:href="#m927490b5b4" x="119.539021" y="261.5425" style="stroke: #000000; stroke-width: 0.7"/>
      </g>
     </g>
    </g>
    <g id="xtick_9">
     <g id="line2d_15">
      <g>
       <use xlink:href="#m927490b5b4" x="142.980286" y="261.5425" style="stroke: #000000; stroke-width: 0.7"/>
      </g>
     </g>
    </g>
    <g id="xtick_10">
     <g id="line2d_16">
      <g>
       <use xlink:href="#m927490b5b4" x="166.421551" y="261.5425" style="stroke: #000000; stroke-width: 0.7"/>
      </g>
     </g>
    </g>
    <g id="xtick_11">
     <g id="line2d_17">
      <g>
       <use xlink:href="#m927490b5b4" x="189.862816" y="261.5425" style="stroke: #000000; stroke-width: 0.7"/>
      </g>
     </g>
    </g>
    <g id="xtick_12">
     <g id="line2d_18">
      <g>
       <use xlink:href="#m927490b5b4" x="236.745346" y="261.5425" style="stroke: #000000; stroke-width: 0.7"/>
      </g>
     </g>
    </g>
    <g id="xtick_13">
     <g id="line2d_19">
      <g>
       <use xlink:href="#m927490b5b4" x="260.186611" y="261.5425" style="stroke: #000000; stroke-width: 0.7"/>
      </g>
     </g>
    </g>
    <g id="xtick_14">
     <g id="line2d_20">
      <g>
       <use xlink:href="#m927490b5b4" x="283.627876" y="261.5425" style="stroke: #000000; stroke-width: 0.7"/>
      </g>
     </g>
    </g>
    <g id="xtick_15">
     <g id="line2d_21">
      <g>
       <use xlink:href="#m927490b5b4" x="307.069141" y="261.5425" style="stroke: #000000; stroke-width: 0.7"/>
      </g>
     </g>
    </g>
    <g id="xtick_16">
     <g id="line2d_22">
      <g>
       <use xlink:href="#m927490b5b4" x="353.951671" y="261.5425" style="stroke: #000000; stroke-width: 0.7"/>
      </g>
     </g>
    </g>
    <g id="xtick_17">
     <g id="line2d_23">
      <g>
       <use xlink:href="#m927490b5b4" x="377.392936" y="261.5425" style="stroke: #000000; stroke-width: 0.7"/>
      </g>
     </g>
    </g>
    <g id="xtick_18">
     <g id="line2d_24">
      <g>
       <use xlink:href="#m927490b5b4" x="400.834201" y="261.5425" style="stroke: #000000; stroke-width: 0.7"/>
      </g>
     </g>
    </g>
    <g id="xtick_19">
     <g id="line2d_25">
      <g>
       <use xlink:href="#m927490b5b4" x="424.275466" y="261.5425" style="stroke: #000000; stroke-width: 0.7"/>
      </g>
     </g>
    </g>
    <g id="xtick_20">
     <g id="line2d_26">
      <g>
       <use xlink:href="#m927490b5b4" x="471.157996" y="261.5425" style="stroke: #000000; stroke-width: 0.7"/>
      </g>
     </g>
    </g>
    <g id="xtick_21">
     <g id="line2d_27">
      <g>
       <use xlink:href="#m927490b5b4" x="494.599261" y="261.5425" style="stroke: #000000; stroke-width: 0.7"/>
      </g>
     </g>
    </g>
    <g id="xtick_22">
     <g id="line2d_28">
      <g>
       <use xlink:href="#m927490b5b4" x="518.040526" y="261.5425" style="stroke: #000000; stroke-width: 0.7"/>
      </g>
     </g>
    </g>
    <g id="xtick_23">
     <g id="line2d_29">
      <g>
       <use xlink:href="#m927490b5b4" x="541.481791" y="261.5425" style="stroke: #000000; stroke-width: 0.7"/>
      </g>
     </g>
    </g>
    <g id="xtick_24">
     <g id="line2d_30">
      <g>
       <use xlink:href="#m927490b5b4" x="588.364321" y="261.5425" style="stroke: #000000; stroke-width: 0.7"/>
      </g>
     </g>
    </g>
    <g id="xtick_25">
     <g id="line2d_31">
      <g>
       <use xlink:href="#m927490b5b4" x="611.805586" y="261.5425" style="stroke: #000000; stroke-width: 0.7"/>
      </g>
     </g>
    </g>
    <g id="xtick_26">
     <g id="line2d_32">
      <g>
       <use xlink:href="#m927490b5b4" x="635.246851" y="261.5425" style="stroke: #000000; stroke-width: 0.7"/>
      </g>
     </g>
    </g>
    <g id="xtick_27">
     <g id="line2d_33">
      <g>
       <use xlink:href="#m927490b5b4" x="658.688116" y="261.5425" style="stroke: #000000; stroke-width: 0.7"/>
      </g>
     </g>
    </g>
   </g>
   <g id="matplotlib.axis_2">
    <g id="ytick_1">
     <g id="line2d_34">
      <path d="M 67.274375 226.753718 
L 701.38875 226.753718 
" clip-path="url(#p37dacef932)" style="fill: none; stroke-dasharray: 2.22,0.96; stroke-dashoffset: 0; stroke: #b0b0b0; stroke-opacity: 0.5; stroke-width: 0.6"/>
     </g>
     <g id="line2d_35">
      <defs>
       <path id="md4cd0177d1" d="M 0 0 
L -8 0 
" style="stroke: #000000"/>
      </defs>
      <g>
       <use xlink:href="#md4cd0177d1" x="67.274375" y="226.753718" style="stroke: #000000"/>
      </g>
     </g>
     <g id="text_1">
      <!-- 100 -->
      <g transform="translate(32.869375 231.312781) scale(0.12 -0.12)">
       <defs>
        <path id="DejaVuSerif-31" d="M 909 0 
L 909 331 
L 1722 331 
L 1722 4213 
L 781 3603 
L 781 4013 
L 1919 4750 
L 2350 4750 
L 2350 331 
L 3163 331 
L 3163 0 
L 909 0 
z
" transform="scale(0.015625)"/>
        <path id="DejaVuSerif-30" d="M 2034 219 
Q 2513 219 2750 744 
Q 2988 1269 2988 2328 
Q 2988 3391 2750 3916 
Q 2513 4441 2034 4441 
Q 1556 4441 1318 3916 
Q 1081 3391 1081 2328 
Q 1081 1269 1318 744 
Q 1556 219 2034 219 
z
M 2034 -91 
Q 1275 -91 848 546 
Q 422 1184 422 2328 
Q 422 3475 848 4112 
Q 1275 4750 2034 4750 
Q 2797 4750 3222 4112 
Q 3647 3475 3647 2328 
Q 3647 1184 3222 546 
Q 2797 -91 2034 -91 
z
" transform="scale(0.015625)"/>
       </defs>
       <use xlink:href="#DejaVuSerif-31"/>
       <use xlink:href="#DejaVuSerif-30" transform="translate(63.623047 0)"/>
       <use xlink:href="#DejaVuSerif-30" transform="translate(127.246094 0)"/>
      </g>
     </g>
    </g>
    <g id="ytick_2">
     <g id="line2d_36">
      <path d="M 67.274375 180.56881 
L 701.38875 180.56881 
" clip-path="url(#p37dacef932)" style="fill: none; stroke-dasharray: 2.22,0.96; stroke-dashoffset: 0; stroke: #b0b0b0; stroke-opacity: 0.5; stroke-width: 0.6"/>
     </g>
     <g id="line2d_37">
      <g>
       <use xlink:href="#md4cd0177d1" x="67.274375" y="180.56881" style="stroke: #000000"/>
      </g>
     </g>
     <g id="text_2">
      <!-- 150 -->
      <g transform="translate(32.869375 185.127873) scale(0.12 -0.12)">
       <defs>
        <path id="DejaVuSerif-35" d="M 3219 4666 
L 3219 4153 
L 1081 4153 
L 1081 2816 
Q 1244 2928 1461 2984 
Q 1678 3041 1947 3041 
Q 2703 3041 3140 2622 
Q 3578 2203 3578 1478 
Q 3578 738 3136 323 
Q 2694 -91 1894 -91 
Q 1572 -91 1234 -12 
Q 897 66 544 225 
L 544 1131 
L 897 1131 
Q 925 688 1179 453 
Q 1434 219 1894 219 
Q 2388 219 2653 544 
Q 2919 869 2919 1478 
Q 2919 2084 2655 2407 
Q 2391 2731 1894 2731 
Q 1613 2731 1398 2631 
Q 1184 2531 1019 2322 
L 750 2322 
L 750 4666 
L 3219 4666 
z
" transform="scale(0.015625)"/>
       </defs>
       <use xlink:href="#DejaVuSerif-31"/>
       <use xlink:href="#DejaVuSerif-35" transform="translate(63.623047 0)"/>
       <use xlink:href="#DejaVuSerif-30" transform="translate(127.246094 0)"/>
      </g>
     </g>
    </g>
    <g id="ytick_3">
     <g id="line2d_38">
      <path d="M 67.274375 134.383903 
L 701.38875 134.383903 
" clip-path="url(#p37dacef932)" style="fill: none; stroke-dasharray: 2.22,0.96; stroke-dashoffset: 0; stroke: #b0b0b0; stroke-opacity: 0.5; stroke-width: 0.6"/>
     </g>
     <g id="line2d_39">
      <g>
       <use xlink:href="#md4cd0177d1" x="67.274375" y="134.383903" style="stroke: #000000"/>
      </g>
     </g>
     <g id="text_3">
      <!-- 200 -->
      <g transform="translate(32.869375 138.942965) scale(0.12 -0.12)">
       <defs>
        <path id="DejaVuSerif-32" d="M 819 3553 
L 469 3553 
L 469 4384 
Q 803 4563 1142 4656 
Q 1481 4750 1806 4750 
Q 2534 4750 2956 4397 
Q 3378 4044 3378 3438 
Q 3378 2753 2422 1800 
Q 2347 1728 2309 1691 
L 1131 513 
L 3078 513 
L 3078 1088 
L 3444 1088 
L 3444 0 
L 434 0 
L 434 341 
L 1850 1753 
Q 2319 2222 2519 2614 
Q 2719 3006 2719 3438 
Q 2719 3909 2473 4175 
Q 2228 4441 1797 4441 
Q 1350 4441 1106 4219 
Q 863 3997 819 3553 
z
" transform="scale(0.015625)"/>
       </defs>
       <use xlink:href="#DejaVuSerif-32"/>
       <use xlink:href="#DejaVuSerif-30" transform="translate(63.623047 0)"/>
       <use xlink:href="#DejaVuSerif-30" transform="translate(127.246094 0)"/>
      </g>
     </g>
    </g>
    <g id="ytick_4">
     <g id="line2d_40">
      <path d="M 67.274375 88.198995 
L 701.38875 88.198995 
" clip-path="url(#p37dacef932)" style="fill: none; stroke-dasharray: 2.22,0.96; stroke-dashoffset: 0; stroke: #b0b0b0; stroke-opacity: 0.5; stroke-width: 0.6"/>
     </g>
     <g id="line2d_41">
      <g>
       <use xlink:href="#md4cd0177d1" x="67.274375" y="88.198995" style="stroke: #000000"/>
      </g>
     </g>
     <g id="text_4">
      <!-- 250 -->
      <g transform="translate(32.869375 92.758057) scale(0.12 -0.12)">
       <use xlink:href="#DejaVuSerif-32"/>
       <use xlink:href="#DejaVuSerif-35" transform="translate(63.623047 0)"/>
       <use xlink:href="#DejaVuSerif-30" transform="translate(127.246094 0)"/>
      </g>
     </g>
    </g>
    <g id="ytick_5">
     <g id="line2d_42">
      <path d="M 67.274375 42.014087 
L 701.38875 42.014087 
" clip-path="url(#p37dacef932)" style="fill: none; stroke-dasharray: 2.22,0.96; stroke-dashoffset: 0; stroke: #b0b0b0; stroke-opacity: 0.5; stroke-width: 0.6"/>
     </g>
     <g id="line2d_43">
      <g>
       <use xlink:href="#md4cd0177d1" x="67.274375" y="42.014087" style="stroke: #000000"/>
      </g>
     </g>
     <g id="text_5">
      <!-- 300 -->
      <g transform="translate(32.869375 46.573149) scale(0.12 -0.12)">
       <defs>
        <path id="DejaVuSerif-33" d="M 622 4469 
Q 988 4606 1323 4678 
Q 1659 4750 1953 4750 
Q 2638 4750 3022 4454 
Q 3406 4159 3406 3634 
Q 3406 3213 3140 2930 
Q 2875 2647 2388 2547 
Q 2963 2466 3280 2130 
Q 3597 1794 3597 1259 
Q 3597 606 3158 257 
Q 2719 -91 1894 -91 
Q 1528 -91 1179 -12 
Q 831 66 488 225 
L 488 1131 
L 838 1131 
Q 869 681 1141 450 
Q 1413 219 1906 219 
Q 2384 219 2661 495 
Q 2938 772 2938 1253 
Q 2938 1803 2653 2086 
Q 2369 2369 1819 2369 
L 1522 2369 
L 1522 2688 
L 1678 2688 
Q 2225 2688 2498 2914 
Q 2772 3141 2772 3597 
Q 2772 4006 2547 4223 
Q 2322 4441 1900 4441 
Q 1478 4441 1245 4241 
Q 1013 4041 972 3647 
L 622 3647 
L 622 4469 
z
" transform="scale(0.015625)"/>
       </defs>
       <use xlink:href="#DejaVuSerif-33"/>
       <use xlink:href="#DejaVuSerif-30" transform="translate(63.623047 0)"/>
       <use xlink:href="#DejaVuSerif-30" transform="translate(127.246094 0)"/>
      </g>
     </g>
    </g>
    <g id="ytick_6">
     <g id="line2d_44">
      <defs>
       <path id="m4b961de2e2" d="M 0 0 
L -4 0 
" style="stroke: #000000; stroke-width: 0.7"/>
      </defs>
      <g>
       <use xlink:href="#m4b961de2e2" x="67.274375" y="254.464663" style="stroke: #000000; stroke-width: 0.7"/>
      </g>
     </g>
    </g>
    <g id="ytick_7">
     <g id="line2d_45">
      <g>
       <use xlink:href="#m4b961de2e2" x="67.274375" y="245.227681" style="stroke: #000000; stroke-width: 0.7"/>
      </g>
     </g>
    </g>
    <g id="ytick_8">
     <g id="line2d_46">
      <g>
       <use xlink:href="#m4b961de2e2" x="67.274375" y="235.9907" style="stroke: #000000; stroke-width: 0.7"/>
      </g>
     </g>
    </g>
    <g id="ytick_9">
     <g id="line2d_47">
      <g>
       <use xlink:href="#m4b961de2e2" x="67.274375" y="217.516737" style="stroke: #000000; stroke-width: 0.7"/>
      </g>
     </g>
    </g>
    <g id="ytick_10">
     <g id="line2d_48">
      <g>
       <use xlink:href="#m4b961de2e2" x="67.274375" y="208.279755" style="stroke: #000000; stroke-width: 0.7"/>
      </g>
     </g>
    </g>
    <g id="ytick_11">
     <g id="line2d_49">
      <g>
       <use xlink:href="#m4b961de2e2" x="67.274375" y="199.042774" style="stroke: #000000; stroke-width: 0.7"/>
      </g>
     </g>
    </g>
    <g id="ytick_12">
     <g id="line2d_50">
      <g>
       <use xlink:href="#m4b961de2e2" x="67.274375" y="189.805792" style="stroke: #000000; stroke-width: 0.7"/>
      </g>
     </g>
    </g>
    <g id="ytick_13">
     <g id="line2d_51">
      <g>
       <use xlink:href="#m4b961de2e2" x="67.274375" y="171.331829" style="stroke: #000000; stroke-width: 0.7"/>
      </g>
     </g>
    </g>
    <g id="ytick_14">
     <g id="line2d_52">
      <g>
       <use xlink:href="#m4b961de2e2" x="67.274375" y="162.094847" style="stroke: #000000; stroke-width: 0.7"/>
      </g>
     </g>
    </g>
    <g id="ytick_15">
     <g id="line2d_53">
      <g>
       <use xlink:href="#m4b961de2e2" x="67.274375" y="152.857866" style="stroke: #000000; stroke-width: 0.7"/>
      </g>
     </g>
    </g>
    <g id="ytick_16">
     <g id="line2d_54">
      <g>
       <use xlink:href="#m4b961de2e2" x="67.274375" y="143.620884" style="stroke: #000000; stroke-width: 0.7"/>
      </g>
     </g>
    </g>
    <g id="ytick_17">
     <g id="line2d_55">
      <g>
       <use xlink:href="#m4b961de2e2" x="67.274375" y="125.146921" style="stroke: #000000; stroke-width: 0.7"/>
      </g>
     </g>
    </g>
    <g id="ytick_18">
     <g id="line2d_56">
      <g>
       <use xlink:href="#m4b961de2e2" x="67.274375" y="115.909939" style="stroke: #000000; stroke-width: 0.7"/>
      </g>
     </g>
    </g>
    <g id="ytick_19">
     <g id="line2d_57">
      <g>
       <use xlink:href="#m4b961de2e2" x="67.274375" y="106.672958" style="stroke: #000000; stroke-width: 0.7"/>
      </g>
     </g>
    </g>
    <g id="ytick_20">
     <g id="line2d_58">
      <g>
       <use xlink:href="#m4b961de2e2" x="67.274375" y="97.435976" style="stroke: #000000; stroke-width: 0.7"/>
      </g>
     </g>
    </g>
    <g id="ytick_21">
     <g id="line2d_59">
      <g>
       <use xlink:href="#m4b961de2e2" x="67.274375" y="78.962013" style="stroke: #000000; stroke-width: 0.7"/>
      </g>
     </g>
    </g>
    <g id="ytick_22">
     <g id="line2d_60">
      <g>
       <use xlink:href="#m4b961de2e2" x="67.274375" y="69.725032" style="stroke: #000000; stroke-width: 0.7"/>
      </g>
     </g>
    </g>
    <g id="ytick_23">
     <g id="line2d_61">
      <g>
       <use xlink:href="#m4b961de2e2" x="67.274375" y="60.48805" style="stroke: #000000; stroke-width: 0.7"/>
      </g>
     </g>
    </g>
    <g id="ytick_24">
     <g id="line2d_62">
      <g>
       <use xlink:href="#m4b961de2e2" x="67.274375" y="51.251069" style="stroke: #000000; stroke-width: 0.7"/>
      </g>
     </g>
    </g>
    <g id="ytick_25">
     <g id="line2d_63">
      <g>
       <use xlink:href="#m4b961de2e2" x="67.274375" y="32.777105" style="stroke: #000000; stroke-width: 0.7"/>
      </g>
     </g>
    </g>
    <g id="text_6">
     <!-- Temperatura (K) -->
     <g transform="translate(26.37375 193.8575) rotate(-90) scale(0.12 -0.12)">
      <defs>
       <path id="DejaVuSerif-54" d="M 1222 0 
L 1222 331 
L 1819 331 
L 1819 4294 
L 447 4294 
L 447 3566 
L 63 3566 
L 63 4666 
L 4206 4666 
L 4206 3566 
L 3822 3566 
L 3822 4294 
L 2450 4294 
L 2450 331 
L 3047 331 
L 3047 0 
L 1222 0 
z
" transform="scale(0.015625)"/>
       <path id="DejaVuSerif-65" d="M 3469 1600 
L 991 1600 
L 991 1575 
Q 991 903 1244 561 
Q 1497 219 1991 219 
Q 2369 219 2611 417 
Q 2853 616 2950 1006 
L 3413 1006 
Q 3275 459 2904 184 
Q 2534 -91 1931 -91 
Q 1203 -91 761 389 
Q 319 869 319 1663 
Q 319 2450 753 2931 
Q 1188 3413 1894 3413 
Q 2647 3413 3050 2948 
Q 3453 2484 3469 1600 
z
M 2791 1931 
Q 2772 2513 2545 2808 
Q 2319 3103 1894 3103 
Q 1497 3103 1269 2806 
Q 1041 2509 991 1931 
L 2791 1931 
z
" transform="scale(0.015625)"/>
       <path id="DejaVuSerif-6d" d="M 3316 2675 
Q 3481 3041 3739 3227 
Q 3997 3413 4341 3413 
Q 4863 3413 5119 3089 
Q 5375 2766 5375 2113 
L 5375 331 
L 5894 331 
L 5894 0 
L 4300 0 
L 4300 331 
L 4800 331 
L 4800 2047 
Q 4800 2556 4650 2772 
Q 4500 2988 4153 2988 
Q 3769 2988 3567 2697 
Q 3366 2406 3366 1850 
L 3366 331 
L 3866 331 
L 3866 0 
L 2291 0 
L 2291 331 
L 2791 331 
L 2791 2069 
Q 2791 2566 2641 2777 
Q 2491 2988 2144 2988 
Q 1759 2988 1557 2697 
Q 1356 2406 1356 1850 
L 1356 331 
L 1856 331 
L 1856 0 
L 263 0 
L 263 331 
L 781 331 
L 781 2994 
L 231 2994 
L 231 3322 
L 1356 3322 
L 1356 2731 
Q 1516 3063 1762 3238 
Q 2009 3413 2322 3413 
Q 2709 3413 2968 3220 
Q 3228 3028 3316 2675 
z
" transform="scale(0.015625)"/>
       <path id="DejaVuSerif-70" d="M 1313 1825 
L 1313 1497 
Q 1313 897 1542 583 
Q 1772 269 2209 269 
Q 2650 269 2876 622 
Q 3103 975 3103 1663 
Q 3103 2353 2876 2703 
Q 2650 3053 2209 3053 
Q 1772 3053 1542 2737 
Q 1313 2422 1313 1825 
z
M 738 2988 
L 184 2988 
L 184 3322 
L 1313 3322 
L 1313 2803 
Q 1481 3116 1742 3264 
Q 2003 3413 2388 3413 
Q 3000 3413 3387 2928 
Q 3775 2444 3775 1663 
Q 3775 881 3387 395 
Q 3000 -91 2388 -91 
Q 2003 -91 1742 57 
Q 1481 206 1313 519 
L 1313 -997 
L 1856 -997 
L 1856 -1331 
L 184 -1331 
L 184 -997 
L 738 -997 
L 738 2988 
z
" transform="scale(0.015625)"/>
       <path id="DejaVuSerif-72" d="M 3059 3328 
L 3059 2497 
L 2728 2497 
Q 2713 2744 2591 2866 
Q 2469 2988 2234 2988 
Q 1809 2988 1582 2694 
Q 1356 2400 1356 1850 
L 1356 331 
L 2022 331 
L 2022 0 
L 263 0 
L 263 331 
L 781 331 
L 781 2994 
L 231 2994 
L 231 3322 
L 1356 3322 
L 1356 2731 
Q 1525 3078 1790 3245 
Q 2056 3413 2438 3413 
Q 2578 3413 2733 3391 
Q 2888 3369 3059 3328 
z
" transform="scale(0.015625)"/>
       <path id="DejaVuSerif-61" d="M 2547 1044 
L 2547 1747 
L 1806 1747 
Q 1378 1747 1168 1562 
Q 959 1378 959 997 
Q 959 650 1171 447 
Q 1384 244 1747 244 
Q 2106 244 2326 466 
Q 2547 688 2547 1044 
z
M 3122 2075 
L 3122 331 
L 3634 331 
L 3634 0 
L 2547 0 
L 2547 359 
Q 2356 128 2106 18 
Q 1856 -91 1522 -91 
Q 969 -91 644 203 
Q 319 497 319 997 
Q 319 1513 691 1797 
Q 1063 2081 1741 2081 
L 2547 2081 
L 2547 2309 
Q 2547 2688 2317 2895 
Q 2088 3103 1672 3103 
Q 1328 3103 1125 2947 
Q 922 2791 872 2484 
L 575 2484 
L 575 3156 
Q 875 3284 1158 3348 
Q 1441 3413 1709 3413 
Q 2400 3413 2761 3070 
Q 3122 2728 3122 2075 
z
" transform="scale(0.015625)"/>
       <path id="DejaVuSerif-74" d="M 691 2988 
L 184 2988 
L 184 3322 
L 691 3322 
L 691 4353 
L 1269 4353 
L 1269 3322 
L 2350 3322 
L 2350 2988 
L 1269 2988 
L 1269 878 
Q 1269 456 1350 337 
Q 1431 219 1650 219 
Q 1875 219 1978 351 
Q 2081 484 2088 781 
L 2522 781 
Q 2497 328 2275 118 
Q 2053 -91 1600 -91 
Q 1103 -91 897 129 
Q 691 350 691 878 
L 691 2988 
z
" transform="scale(0.015625)"/>
       <path id="DejaVuSerif-75" d="M 2266 3322 
L 3341 3322 
L 3341 331 
L 3884 331 
L 3884 0 
L 2766 0 
L 2766 588 
Q 2606 256 2353 82 
Q 2100 -91 1766 -91 
Q 1213 -91 952 223 
Q 691 538 691 1209 
L 691 2988 
L 172 2988 
L 172 3322 
L 1269 3322 
L 1269 1388 
Q 1269 781 1417 556 
Q 1566 331 1947 331 
Q 2347 331 2556 625 
Q 2766 919 2766 1478 
L 2766 2988 
L 2266 2988 
L 2266 3322 
z
" transform="scale(0.015625)"/>
       <path id="DejaVuSerif-20" transform="scale(0.015625)"/>
       <path id="DejaVuSerif-28" d="M 2041 -997 
Q 1281 -656 893 83 
Q 506 822 506 1931 
Q 506 3044 893 3783 
Q 1281 4522 2041 4863 
L 2041 4556 
Q 1559 4225 1350 3623 
Q 1141 3022 1141 1931 
Q 1141 844 1350 242 
Q 1559 -359 2041 -691 
L 2041 -997 
z
" transform="scale(0.015625)"/>
       <path id="DejaVuSerif-4b" d="M 353 0 
L 353 331 
L 947 331 
L 947 4331 
L 353 4331 
L 353 4666 
L 2175 4666 
L 2175 4331 
L 1581 4331 
L 1581 2566 
L 3591 4331 
L 3084 4331 
L 3084 4666 
L 4634 4666 
L 4634 4331 
L 4109 4331 
L 2106 2572 
L 4347 331 
L 4878 331 
L 4878 0 
L 3794 0 
L 1581 2216 
L 1581 331 
L 2175 331 
L 2175 0 
L 353 0 
z
" transform="scale(0.015625)"/>
       <path id="DejaVuSerif-29" d="M 453 -997 
L 453 -691 
Q 934 -359 1145 242 
Q 1356 844 1356 1931 
Q 1356 3022 1145 3623 
Q 934 4225 453 4556 
L 453 4863 
Q 1216 4522 1603 3783 
Q 1991 3044 1991 1931 
Q 1991 822 1603 83 
Q 1216 -656 453 -997 
z
" transform="scale(0.015625)"/>
      </defs>
      <use xlink:href="#DejaVuSerif-54"/>
      <use xlink:href="#DejaVuSerif-65" transform="translate(58.949219 0)"/>
      <use xlink:href="#DejaVuSerif-6d" transform="translate(118.128906 0)"/>
      <use xlink:href="#DejaVuSerif-70" transform="translate(212.953125 0)"/>
      <use xlink:href="#DejaVuSerif-65" transform="translate(276.966797 0)"/>
      <use xlink:href="#DejaVuSerif-72" transform="translate(336.146484 0)"/>
      <use xlink:href="#DejaVuSerif-61" transform="translate(383.949219 0)"/>
      <use xlink:href="#DejaVuSerif-74" transform="translate(443.568359 0)"/>
      <use xlink:href="#DejaVuSerif-75" transform="translate(483.753906 0)"/>
      <use xlink:href="#DejaVuSerif-72" transform="translate(548.158203 0)"/>
      <use xlink:href="#DejaVuSerif-61" transform="translate(595.960938 0)"/>
      <use xlink:href="#DejaVuSerif-20" transform="translate(655.580078 0)"/>
      <use xlink:href="#DejaVuSerif-28" transform="translate(687.367188 0)"/>
      <use xlink:href="#DejaVuSerif-4b" transform="translate(726.380859 0)"/>
      <use xlink:href="#DejaVuSerif-29" transform="translate(801.087891 0)"/>
     </g>
    </g>
   </g>
   <g id="line2d_64">
    <path d="M 96.097756 54.160718 
L 101.536129 60.164756 
L 106.974503 62.104522 
L 112.412877 63.951918 
L 117.851251 65.799314 
L 123.289624 69.309368 
L 128.727998 71.064394 
L 134.166372 72.819421 
L 139.604745 76.237104 
L 145.043119 79.470047 
L 150.481493 82.702991 
L 155.919867 86.120674 
L 161.35824 89.353617 
L 166.796614 92.401822 
L 172.234988 95.450025 
L 177.673361 100.530365 
L 183.111735 102.285393 
L 188.550109 107.642842 
L 193.988483 110.875785 
L 199.426856 114.108729 
L 204.86523 117.526413 
L 210.303604 120.666984 
L 215.741977 123.899928 
L 221.180351 127.040499 
L 226.618725 130.088706 
L 232.057099 132.952169 
L 237.495472 135.815632 
L 242.933846 138.77147 
L 248.37222 141.542565 
L 253.810593 142.928112 
L 259.248967 147.084754 
L 264.687341 149.671104 
L 270.125715 152.34983 
L 275.564088 155.305669 
L 281.002462 157.892019 
L 286.440836 160.016528 
L 291.879209 162.602878 
L 297.317583 165.004499 
L 302.755957 168.145067 
L 308.194331 169.715358 
L 313.632704 173.225407 
L 319.071078 174.333849 
L 324.509452 176.735463 
L 329.947825 179.598926 
L 335.386199 179.78367 
L 340.824573 181.538691 
L 346.262947 184.309785 
L 351.70132 185.880069 
L 357.139694 186.619031 
L 362.578068 188.466427 
L 368.016441 190.868048 
L 373.454815 190.683311 
L 378.893189 191.422258 
L 384.331563 194.655202 
L 389.769936 195.948388 
L 395.20831 195.671275 
L 400.646684 196.77971 
L 406.085057 197.980521 
L 411.523431 199.827917 
L 416.961805 198.165257 
L 422.400178 201.398201 
L 427.838552 202.414275 
L 433.276926 203.153236 
L 438.7153 203.707446 
L 444.153673 204.908257 
L 449.592047 205.92433 
L 455.030421 207.125127 
L 460.468794 207.217502 
L 465.907168 211.374144 
L 471.345542 212.759691 
L 476.783916 214.145238 
L 482.222289 202.321899 
L 487.660663 193.823879 
L 493.099037 190.129086 
L 498.53741 187.635104 
L 503.975784 184.86401 
L 509.414158 180.707368 
L 514.852532 177.289681 
L 520.290905 173.964369 
L 525.729279 169.438246 
L 531.167653 165.373973 
L 536.606026 161.032594 
L 542.0444 156.968321 
L 547.482774 152.811679 
L 552.921148 148.655038 
L 558.359521 144.313659 
L 563.797895 139.418056 
L 569.236269 135.815632 
L 574.674642 131.197141 
L 580.113016 125.932064 
L 585.55139 121.128833 
L 590.989764 116.510343 
L 596.428137 111.799483 
L 601.866511 106.996252 
L 607.304885 102.285393 
L 612.743258 97.38979 
L 618.181632 92.494191 
L 623.620006 87.690961 
L 629.05838 83.534319 
L 634.496753 77.715021 
L 639.935127 72.542311 
L 645.373501 68.2933 
L 650.811874 62.381631 
L 656.250248 58.13262 
L 661.688622 52.775171 
L 667.126996 48.52616 
L 672.565369 48.52616 
" clip-path="url(#p37dacef932)" style="fill: none; stroke: #1e90ff; stroke-width: 1.2; stroke-linecap: square"/>
   </g>
   <g id="patch_3">
    <path d="M 67.274375 261.5425 
L 67.274375 25.3575 
" style="fill: none; stroke: #000000; stroke-width: 0.8; stroke-linejoin: miter; stroke-linecap: square"/>
   </g>
   <g id="patch_4">
    <path d="M 701.38875 261.5425 
L 701.38875 25.3575 
" style="fill: none; stroke: #000000; stroke-width: 0.8; stroke-linejoin: miter; stroke-linecap: square"/>
   </g>
   <g id="patch_5">
    <path d="M 67.274375 261.5425 
L 701.38875 261.5425 
" style="fill: none; stroke: #000000; stroke-width: 0.8; stroke-linejoin: miter; stroke-linecap: square"/>
   </g>
   <g id="patch_6">
    <path d="M 67.274375 25.3575 
L 701.38875 25.3575 
" style="fill: none; stroke: #000000; stroke-width: 0.8; stroke-linejoin: miter; stroke-linecap: square"/>
   </g>
   <g id="text_7">
    <!-- main_folder_vs55_hepes_rt_rotate (c/corr) -->
    <g transform="translate(213.076563 19.3575) scale(0.16 -0.16)">
     <defs>
      <path id="DejaVuSerif-69" d="M 622 4353 
Q 622 4497 726 4603 
Q 831 4709 978 4709 
Q 1122 4709 1226 4603 
Q 1331 4497 1331 4353 
Q 1331 4206 1228 4103 
Q 1125 4000 978 4000 
Q 831 4000 726 4103 
Q 622 4206 622 4353 
z
M 1356 331 
L 1900 331 
L 1900 0 
L 231 0 
L 231 331 
L 781 331 
L 781 2988 
L 231 2988 
L 231 3322 
L 1356 3322 
L 1356 331 
z
" transform="scale(0.015625)"/>
      <path id="DejaVuSerif-6e" d="M 263 0 
L 263 331 
L 781 331 
L 781 2988 
L 231 2988 
L 231 3322 
L 1356 3322 
L 1356 2731 
Q 1516 3069 1770 3241 
Q 2025 3413 2363 3413 
Q 2913 3413 3172 3097 
Q 3431 2781 3431 2113 
L 3431 331 
L 3944 331 
L 3944 0 
L 2356 0 
L 2356 331 
L 2853 331 
L 2853 1931 
Q 2853 2541 2703 2767 
Q 2553 2994 2175 2994 
Q 1775 2994 1565 2701 
Q 1356 2409 1356 1850 
L 1356 331 
L 1856 331 
L 1856 0 
L 263 0 
z
" transform="scale(0.015625)"/>
      <path id="DejaVuSerif-5f" d="M 3200 -1259 
L 3200 -1509 
L 0 -1509 
L 0 -1259 
L 3200 -1259 
z
" transform="scale(0.015625)"/>
      <path id="DejaVuSerif-66" d="M 2753 4078 
L 2450 4078 
Q 2447 4313 2317 4434 
Q 2188 4556 1941 4556 
Q 1619 4556 1487 4379 
Q 1356 4203 1356 3750 
L 1356 3322 
L 2284 3322 
L 2284 2988 
L 1356 2988 
L 1356 331 
L 2094 331 
L 2094 0 
L 231 0 
L 231 331 
L 781 331 
L 781 2988 
L 231 2988 
L 231 3322 
L 781 3322 
L 781 3738 
Q 781 4294 1070 4578 
Q 1359 4863 1919 4863 
Q 2128 4863 2337 4825 
Q 2547 4788 2753 4709 
L 2753 4078 
z
" transform="scale(0.015625)"/>
      <path id="DejaVuSerif-6f" d="M 1925 219 
Q 2388 219 2623 584 
Q 2859 950 2859 1663 
Q 2859 2375 2623 2739 
Q 2388 3103 1925 3103 
Q 1463 3103 1227 2739 
Q 991 2375 991 1663 
Q 991 950 1228 584 
Q 1466 219 1925 219 
z
M 1925 -91 
Q 1200 -91 759 389 
Q 319 869 319 1663 
Q 319 2456 758 2934 
Q 1197 3413 1925 3413 
Q 2653 3413 3092 2934 
Q 3531 2456 3531 1663 
Q 3531 869 3092 389 
Q 2653 -91 1925 -91 
z
" transform="scale(0.015625)"/>
      <path id="DejaVuSerif-6c" d="M 1313 331 
L 1856 331 
L 1856 0 
L 184 0 
L 184 331 
L 738 331 
L 738 4531 
L 184 4531 
L 184 4863 
L 1313 4863 
L 1313 331 
z
" transform="scale(0.015625)"/>
      <path id="DejaVuSerif-64" d="M 3359 331 
L 3909 331 
L 3909 0 
L 2784 0 
L 2784 519 
Q 2616 206 2355 57 
Q 2094 -91 1709 -91 
Q 1097 -91 708 395 
Q 319 881 319 1663 
Q 319 2444 706 2928 
Q 1094 3413 1709 3413 
Q 2094 3413 2355 3264 
Q 2616 3116 2784 2803 
L 2784 4531 
L 2241 4531 
L 2241 4863 
L 3359 4863 
L 3359 331 
z
M 2784 1497 
L 2784 1825 
Q 2784 2422 2554 2737 
Q 2325 3053 1888 3053 
Q 1444 3053 1217 2703 
Q 991 2353 991 1663 
Q 991 975 1217 622 
Q 1444 269 1888 269 
Q 2325 269 2554 583 
Q 2784 897 2784 1497 
z
" transform="scale(0.015625)"/>
      <path id="DejaVuSerif-76" d="M 1581 0 
L 359 2988 
L -19 2988 
L -19 3322 
L 1509 3322 
L 1509 2988 
L 978 2988 
L 1913 703 
L 2847 2988 
L 2350 2988 
L 2350 3322 
L 3597 3322 
L 3597 2988 
L 3225 2988 
L 2003 0 
L 1581 0 
z
" transform="scale(0.015625)"/>
      <path id="DejaVuSerif-73" d="M 359 184 
L 359 959 
L 691 959 
Q 703 588 923 403 
Q 1144 219 1575 219 
Q 1963 219 2166 364 
Q 2369 509 2369 788 
Q 2369 1006 2220 1140 
Q 2072 1275 1594 1428 
L 1178 1569 
Q 750 1706 558 1912 
Q 366 2119 366 2438 
Q 366 2894 700 3153 
Q 1034 3413 1625 3413 
Q 1888 3413 2178 3344 
Q 2469 3275 2778 3144 
L 2778 2419 
L 2447 2419 
Q 2434 2741 2221 2922 
Q 2009 3103 1644 3103 
Q 1281 3103 1095 2975 
Q 909 2847 909 2591 
Q 909 2381 1050 2254 
Q 1191 2128 1613 1997 
L 2069 1856 
Q 2541 1709 2748 1489 
Q 2956 1269 2956 922 
Q 2956 450 2595 179 
Q 2234 -91 1600 -91 
Q 1278 -91 972 -22 
Q 666 47 359 184 
z
" transform="scale(0.015625)"/>
      <path id="DejaVuSerif-68" d="M 263 0 
L 263 331 
L 781 331 
L 781 4531 
L 231 4531 
L 231 4863 
L 1356 4863 
L 1356 2731 
Q 1516 3069 1770 3241 
Q 2025 3413 2363 3413 
Q 2913 3413 3172 3097 
Q 3431 2781 3431 2113 
L 3431 331 
L 3944 331 
L 3944 0 
L 2356 0 
L 2356 331 
L 2853 331 
L 2853 1931 
Q 2853 2541 2704 2764 
Q 2556 2988 2175 2988 
Q 1775 2988 1565 2697 
Q 1356 2406 1356 1850 
L 1356 331 
L 1856 331 
L 1856 0 
L 263 0 
z
" transform="scale(0.015625)"/>
      <path id="DejaVuSerif-63" d="M 3291 997 
Q 3169 466 2822 187 
Q 2475 -91 1925 -91 
Q 1200 -91 759 389 
Q 319 869 319 1663 
Q 319 2459 759 2936 
Q 1200 3413 1925 3413 
Q 2241 3413 2553 3339 
Q 2866 3266 3181 3116 
L 3181 2266 
L 2847 2266 
Q 2781 2703 2561 2903 
Q 2341 3103 1931 3103 
Q 1466 3103 1228 2742 
Q 991 2381 991 1663 
Q 991 944 1227 581 
Q 1463 219 1931 219 
Q 2303 219 2525 412 
Q 2747 606 2828 997 
L 3291 997 
z
" transform="scale(0.015625)"/>
      <path id="DejaVuSerif-2f" d="M 1656 4666 
L 2156 4666 
L 500 -594 
L 0 -594 
L 1656 4666 
z
" transform="scale(0.015625)"/>
     </defs>
     <use xlink:href="#DejaVuSerif-6d"/>
     <use xlink:href="#DejaVuSerif-61" transform="translate(94.824219 0)"/>
     <use xlink:href="#DejaVuSerif-69" transform="translate(154.443359 0)"/>
     <use xlink:href="#DejaVuSerif-6e" transform="translate(186.425781 0)"/>
     <use xlink:href="#DejaVuSerif-5f" transform="translate(250.830078 0)"/>
     <use xlink:href="#DejaVuSerif-66" transform="translate(300.830078 0)"/>
     <use xlink:href="#DejaVuSerif-6f" transform="translate(337.841797 0)"/>
     <use xlink:href="#DejaVuSerif-6c" transform="translate(398.046875 0)"/>
     <use xlink:href="#DejaVuSerif-64" transform="translate(430.029297 0)"/>
     <use xlink:href="#DejaVuSerif-65" transform="translate(494.042969 0)"/>
     <use xlink:href="#DejaVuSerif-72" transform="translate(553.222656 0)"/>
     <use xlink:href="#DejaVuSerif-5f" transform="translate(601.025391 0)"/>
     <use xlink:href="#DejaVuSerif-76" transform="translate(651.025391 0)"/>
     <use xlink:href="#DejaVuSerif-73" transform="translate(707.519531 0)"/>
     <use xlink:href="#DejaVuSerif-35" transform="translate(758.837891 0)"/>
     <use xlink:href="#DejaVuSerif-35" transform="translate(822.460938 0)"/>
     <use xlink:href="#DejaVuSerif-5f" transform="translate(886.083984 0)"/>
     <use xlink:href="#DejaVuSerif-68" transform="translate(936.083984 0)"/>
     <use xlink:href="#DejaVuSerif-65" transform="translate(1000.488281 0)"/>
     <use xlink:href="#DejaVuSerif-70" transform="translate(1059.667969 0)"/>
     <use xlink:href="#DejaVuSerif-65" transform="translate(1123.681641 0)"/>
     <use xlink:href="#DejaVuSerif-73" transform="translate(1182.861328 0)"/>
     <use xlink:href="#DejaVuSerif-5f" transform="translate(1234.179688 0)"/>
     <use xlink:href="#DejaVuSerif-72" transform="translate(1284.179688 0)"/>
     <use xlink:href="#DejaVuSerif-74" transform="translate(1331.982422 0)"/>
     <use xlink:href="#DejaVuSerif-5f" transform="translate(1372.167969 0)"/>
     <use xlink:href="#DejaVuSerif-72" transform="translate(1422.167969 0)"/>
     <use xlink:href="#DejaVuSerif-6f" transform="translate(1469.970703 0)"/>
     <use xlink:href="#DejaVuSerif-74" transform="translate(1530.175781 0)"/>
     <use xlink:href="#DejaVuSerif-61" transform="translate(1570.361328 0)"/>
     <use xlink:href="#DejaVuSerif-74" transform="translate(1629.980469 0)"/>
     <use xlink:href="#DejaVuSerif-65" transform="translate(1670.166016 0)"/>
     <use xlink:href="#DejaVuSerif-20" transform="translate(1729.345703 0)"/>
     <use xlink:href="#DejaVuSerif-28" transform="translate(1761.132812 0)"/>
     <use xlink:href="#DejaVuSerif-63" transform="translate(1800.146484 0)"/>
     <use xlink:href="#DejaVuSerif-2f" transform="translate(1856.152344 0)"/>
     <use xlink:href="#DejaVuSerif-63" transform="translate(1889.84375 0)"/>
     <use xlink:href="#DejaVuSerif-6f" transform="translate(1945.849609 0)"/>
     <use xlink:href="#DejaVuSerif-72" transform="translate(2006.054688 0)"/>
     <use xlink:href="#DejaVuSerif-72" transform="translate(2053.857422 0)"/>
     <use xlink:href="#DejaVuSerif-29" transform="translate(2101.660156 0)"/>
    </g>
   </g>
  </g>
  <g id="axes_2">
   <g id="patch_7">
    <path d="M 67.274375 518.6875 
L 701.38875 518.6875 
L 701.38875 282.5025 
L 67.274375 282.5025 
L 67.274375 518.6875 
z
" style="fill: none"/>
   </g>
   <g id="FillBetweenPolyCollection_2">
    <defs>
     <path id="m08989b5c58" d="M 96.097756 -232.827665 
L 96.097756 -56.663182 
L 101.536129 -130.566121 
L 106.974503 -133.789822 
L 112.412877 -132.389667 
L 117.851251 -128.693528 
L 123.289624 -127.821605 
L 128.727998 -129.397138 
L 134.166372 -125.962484 
L 139.604745 -123.313052 
L 145.043119 -122.533333 
L 150.481493 -121.730255 
L 155.919867 -120.97993 
L 161.35824 -121.056623 
L 166.796614 -120.358558 
L 172.234988 -116.871201 
L 177.673361 -117.827542 
L 183.111735 -116.298475 
L 188.550109 -113.550193 
L 193.988483 -115.2646 
L 199.426856 -114.22942 
L 204.86523 -113.264725 
L 210.303604 -112.854492 
L 215.741977 -111.701685 
L 221.180351 -111.225769 
L 226.618725 -110.661563 
L 232.057099 -110.156882 
L 237.495472 -109.367569 
L 242.933846 -108.574473 
L 248.37222 -110.374672 
L 253.810593 -107.953165 
L 259.248967 -105.357027 
L 264.687341 -107.066378 
L 270.125715 -105.807402 
L 275.564088 -105.773771 
L 281.002462 -106.11011 
L 286.440836 -105.771657 
L 291.879209 -104.383648 
L 297.317583 -104.165148 
L 302.755957 -103.874573 
L 308.194331 -104.133544 
L 313.632704 -103.379179 
L 319.071078 -105.068532 
L 324.509452 -102.437919 
L 329.947825 -104.742004 
L 335.386199 -105.933132 
L 340.824573 -102.175851 
L 346.262947 -102.082495 
L 351.70132 -104.489908 
L 357.139694 -103.361355 
L 362.578068 -100.986788 
L 368.016441 -102.156258 
L 373.454815 -104.378039 
L 378.893189 -100.13424 
L 384.331563 -98.642292 
L 389.769936 -103.434834 
L 395.20831 -102.930795 
L 400.646684 -100.455048 
L 406.085057 -99.470817 
L 411.523431 -101.589251 
L 416.961805 -101.861142 
L 422.400178 -95.848415 
L 427.838552 -100.199458 
L 433.276926 -100.562832 
L 438.7153 -99.834792 
L 444.153673 -99.347084 
L 449.592047 -97.628221 
L 455.030421 -97.811171 
L 460.468794 -91.397343 
L 465.907168 -88.024132 
L 471.345542 -92.40463 
L 476.783916 -105.063722 
L 482.222289 -115.27707 
L 487.660663 -103.462175 
L 493.099037 -94.282221 
L 498.53741 -98.885722 
L 503.975784 -106.505579 
L 509.414158 -112.214495 
L 514.852532 -115.009829 
L 520.290905 -120.601638 
L 525.729279 -124.52705 
L 531.167653 -127.567171 
L 536.606026 -130.781419 
L 542.0444 -133.214216 
L 547.482774 -136.490035 
L 552.921148 -139.451293 
L 558.359521 -143.625625 
L 563.797895 -144.999948 
L 569.236269 -147.522423 
L 574.674642 -152.193585 
L 580.113016 -154.513076 
L 585.55139 -155.974968 
L 590.989764 -157.909598 
L 596.428137 -160.065424 
L 601.866511 -162.164299 
L 607.304885 -164.106333 
L 612.743258 -166.180032 
L 618.181632 -167.150044 
L 623.620006 -165.999487 
L 629.05838 -166.423697 
L 634.496753 -166.097582 
L 639.935127 -162.47265 
L 645.373501 -161.880687 
L 650.811874 -160.475927 
L 656.250248 -158.268929 
L 661.688622 -156.813657 
L 667.126996 -149.070906 
L 672.565369 -76.085054 
L 672.565369 -244.971452 
L 672.565369 -244.971452 
L 667.126996 -194.673415 
L 661.688622 -201.233852 
L 656.250248 -199.778581 
L 650.811874 -199.051223 
L 645.373501 -197.646464 
L 639.935127 -195.081648 
L 634.496753 -195.64903 
L 629.05838 -192.610241 
L 623.620006 -190.321774 
L 618.181632 -191.144068 
L 612.743258 -192.360697 
L 607.304885 -193.941181 
L 601.866511 -195.636602 
L 596.428137 -197.735477 
L 590.989764 -199.398089 
L 585.55139 -201.57933 
L 580.113016 -204.767463 
L 574.674642 -206.593738 
L 569.236269 -206.82599 
L 563.797895 -210.088293 
L 558.359521 -213.435458 
L 552.921148 -215.636929 
L 547.482774 -218.104982 
L 542.0444 -221.134198 
L 536.606026 -224.0602 
L 531.167653 -227.274448 
L 525.729279 -230.807795 
L 520.290905 -232.760345 
L 514.852532 -235.392881 
L 509.414158 -240.407679 
L 503.975784 -244.390337 
L 498.53741 -247.571265 
L 493.099037 -254.640834 
L 487.660663 -261.490315 
L 482.222289 -271.376818 
L 476.783916 -255.203256 
L 471.345542 -232.597582 
L 465.907168 -229.579879 
L 460.468794 -229.659147 
L 455.030421 -231.136764 
L 449.592047 -228.853646 
L 444.153673 -227.134746 
L 438.7153 -227.880109 
L 433.276926 -228.385103 
L 427.838552 -227.515405 
L 422.400178 -225.208074 
L 416.961805 -226.346965 
L 411.523431 -230.317956 
L 406.085057 -224.791567 
L 400.646684 -225.780198 
L 395.20831 -227.250173 
L 389.769936 -226.252891 
L 384.331563 -221.67437 
L 378.893189 -221.662115 
L 373.454815 -226.542757 
L 368.016441 -224.325572 
L 362.578068 -220.069702 
L 357.139694 -222.134063 
L 351.70132 -221.745338 
L 346.262947 -218.727411 
L 340.824573 -218.140849 
L 335.386199 -221.288544 
L 329.947825 -219.52038 
L 324.509452 -215.905919 
L 319.071078 -217.960819 
L 313.632704 -216.690899 
L 308.194331 -214.7035 
L 302.755957 -215.948902 
L 297.317583 -213.438863 
L 291.879209 -214.7 
L 286.440836 -214.051818 
L 281.002462 -213.713365 
L 275.564088 -211.83024 
L 270.125715 -211.549987 
L 264.687341 -211.27746 
L 259.248967 -209.041108 
L 253.810593 -209.650846 
L 248.37222 -210.92844 
L 242.933846 -208.536313 
L 237.495472 -207.496615 
L 232.057099 -206.953923 
L 226.618725 -205.956017 
L 221.180351 -204.651993 
L 215.741977 -203.682871 
L 210.303604 -202.530064 
L 204.86523 -201.626616 
L 199.426856 -200.415308 
L 193.988483 -199.873344 
L 188.550109 -195.915798 
L 183.111735 -197.113221 
L 177.673361 -196.323971 
L 172.234988 -193.827824 
L 166.796614 -195.765812 
L 161.35824 -194.574531 
L 155.919867 -193.664803 
L 150.481493 -192.914476 
L 145.043119 -192.604608 
L 139.604745 -191.331679 
L 134.166372 -192.627954 
L 128.727998 -193.63222 
L 123.289624 -190.522226 
L 117.851251 -189.403696 
L 112.412877 -190.146478 
L 106.974503 -188.499717 
L 101.536129 -180.626116 
L 96.097756 -232.827665 
z
"/>
    </defs>
    <g clip-path="url(#p06e7394e83)">
     <use xlink:href="#m08989b5c58" x="0" y="564.615" style="fill: #dc143c; fill-opacity: 0.3"/>
    </g>
   </g>
   <g id="matplotlib.axis_3">
    <g id="xtick_28">
     <g id="line2d_65">
      <path d="M 96.097756 518.6875 
L 96.097756 282.5025 
" clip-path="url(#p06e7394e83)" style="fill: none; stroke-dasharray: 2.22,0.96; stroke-dashoffset: 0; stroke: #b0b0b0; stroke-opacity: 0.5; stroke-width: 0.6"/>
     </g>
     <g id="line2d_66">
      <g>
       <use xlink:href="#m70fb2c8da2" x="96.097756" y="518.6875" style="stroke: #000000"/>
      </g>
     </g>
     <g id="text_8">
      <!-- 0 -->
      <g transform="translate(92.280256 539.305625) scale(0.12 -0.12)">
       <use xlink:href="#DejaVuSerif-30"/>
      </g>
     </g>
    </g>
    <g id="xtick_29">
     <g id="line2d_67">
      <path d="M 213.304081 518.6875 
L 213.304081 282.5025 
" clip-path="url(#p06e7394e83)" style="fill: none; stroke-dasharray: 2.22,0.96; stroke-dashoffset: 0; stroke: #b0b0b0; stroke-opacity: 0.5; stroke-width: 0.6"/>
     </g>
     <g id="line2d_68">
      <g>
       <use xlink:href="#m70fb2c8da2" x="213.304081" y="518.6875" style="stroke: #000000"/>
      </g>
     </g>
     <g id="text_9">
      <!-- 500 -->
      <g transform="translate(201.851581 539.305625) scale(0.12 -0.12)">
       <use xlink:href="#DejaVuSerif-35"/>
       <use xlink:href="#DejaVuSerif-30" transform="translate(63.623047 0)"/>
       <use xlink:href="#DejaVuSerif-30" transform="translate(127.246094 0)"/>
      </g>
     </g>
    </g>
    <g id="xtick_30">
     <g id="line2d_69">
      <path d="M 330.510406 518.6875 
L 330.510406 282.5025 
" clip-path="url(#p06e7394e83)" style="fill: none; stroke-dasharray: 2.22,0.96; stroke-dashoffset: 0; stroke: #b0b0b0; stroke-opacity: 0.5; stroke-width: 0.6"/>
     </g>
     <g id="line2d_70">
      <g>
       <use xlink:href="#m70fb2c8da2" x="330.510406" y="518.6875" style="stroke: #000000"/>
      </g>
     </g>
     <g id="text_10">
      <!-- 1000 -->
      <g transform="translate(315.240406 539.305625) scale(0.12 -0.12)">
       <use xlink:href="#DejaVuSerif-31"/>
       <use xlink:href="#DejaVuSerif-30" transform="translate(63.623047 0)"/>
       <use xlink:href="#DejaVuSerif-30" transform="translate(127.246094 0)"/>
       <use xlink:href="#DejaVuSerif-30" transform="translate(190.869141 0)"/>
      </g>
     </g>
    </g>
    <g id="xtick_31">
     <g id="line2d_71">
      <path d="M 447.716731 518.6875 
L 447.716731 282.5025 
" clip-path="url(#p06e7394e83)" style="fill: none; stroke-dasharray: 2.22,0.96; stroke-dashoffset: 0; stroke: #b0b0b0; stroke-opacity: 0.5; stroke-width: 0.6"/>
     </g>
     <g id="line2d_72">
      <g>
       <use xlink:href="#m70fb2c8da2" x="447.716731" y="518.6875" style="stroke: #000000"/>
      </g>
     </g>
     <g id="text_11">
      <!-- 1500 -->
      <g transform="translate(432.446731 539.305625) scale(0.12 -0.12)">
       <use xlink:href="#DejaVuSerif-31"/>
       <use xlink:href="#DejaVuSerif-35" transform="translate(63.623047 0)"/>
       <use xlink:href="#DejaVuSerif-30" transform="translate(127.246094 0)"/>
       <use xlink:href="#DejaVuSerif-30" transform="translate(190.869141 0)"/>
      </g>
     </g>
    </g>
    <g id="xtick_32">
     <g id="line2d_73">
      <path d="M 564.923056 518.6875 
L 564.923056 282.5025 
" clip-path="url(#p06e7394e83)" style="fill: none; stroke-dasharray: 2.22,0.96; stroke-dashoffset: 0; stroke: #b0b0b0; stroke-opacity: 0.5; stroke-width: 0.6"/>
     </g>
     <g id="line2d_74">
      <g>
       <use xlink:href="#m70fb2c8da2" x="564.923056" y="518.6875" style="stroke: #000000"/>
      </g>
     </g>
     <g id="text_12">
      <!-- 2000 -->
      <g transform="translate(549.653056 539.305625) scale(0.12 -0.12)">
       <use xlink:href="#DejaVuSerif-32"/>
       <use xlink:href="#DejaVuSerif-30" transform="translate(63.623047 0)"/>
       <use xlink:href="#DejaVuSerif-30" transform="translate(127.246094 0)"/>
       <use xlink:href="#DejaVuSerif-30" transform="translate(190.869141 0)"/>
      </g>
     </g>
    </g>
    <g id="xtick_33">
     <g id="line2d_75">
      <path d="M 682.129381 518.6875 
L 682.129381 282.5025 
" clip-path="url(#p06e7394e83)" style="fill: none; stroke-dasharray: 2.22,0.96; stroke-dashoffset: 0; stroke: #b0b0b0; stroke-opacity: 0.5; stroke-width: 0.6"/>
     </g>
     <g id="line2d_76">
      <g>
       <use xlink:href="#m70fb2c8da2" x="682.129381" y="518.6875" style="stroke: #000000"/>
      </g>
     </g>
     <g id="text_13">
      <!-- 2500 -->
      <g transform="translate(666.859381 539.305625) scale(0.12 -0.12)">
       <use xlink:href="#DejaVuSerif-32"/>
       <use xlink:href="#DejaVuSerif-35" transform="translate(63.623047 0)"/>
       <use xlink:href="#DejaVuSerif-30" transform="translate(127.246094 0)"/>
       <use xlink:href="#DejaVuSerif-30" transform="translate(190.869141 0)"/>
      </g>
     </g>
    </g>
    <g id="xtick_34">
     <g id="line2d_77">
      <g>
       <use xlink:href="#m927490b5b4" x="72.656491" y="518.6875" style="stroke: #000000; stroke-width: 0.7"/>
      </g>
     </g>
    </g>
    <g id="xtick_35">
     <g id="line2d_78">
      <g>
       <use xlink:href="#m927490b5b4" x="119.539021" y="518.6875" style="stroke: #000000; stroke-width: 0.7"/>
      </g>
     </g>
    </g>
    <g id="xtick_36">
     <g id="line2d_79">
      <g>
       <use xlink:href="#m927490b5b4" x="142.980286" y="518.6875" style="stroke: #000000; stroke-width: 0.7"/>
      </g>
     </g>
    </g>
    <g id="xtick_37">
     <g id="line2d_80">
      <g>
       <use xlink:href="#m927490b5b4" x="166.421551" y="518.6875" style="stroke: #000000; stroke-width: 0.7"/>
      </g>
     </g>
    </g>
    <g id="xtick_38">
     <g id="line2d_81">
      <g>
       <use xlink:href="#m927490b5b4" x="189.862816" y="518.6875" style="stroke: #000000; stroke-width: 0.7"/>
      </g>
     </g>
    </g>
    <g id="xtick_39">
     <g id="line2d_82">
      <g>
       <use xlink:href="#m927490b5b4" x="236.745346" y="518.6875" style="stroke: #000000; stroke-width: 0.7"/>
      </g>
     </g>
    </g>
    <g id="xtick_40">
     <g id="line2d_83">
      <g>
       <use xlink:href="#m927490b5b4" x="260.186611" y="518.6875" style="stroke: #000000; stroke-width: 0.7"/>
      </g>
     </g>
    </g>
    <g id="xtick_41">
     <g id="line2d_84">
      <g>
       <use xlink:href="#m927490b5b4" x="283.627876" y="518.6875" style="stroke: #000000; stroke-width: 0.7"/>
      </g>
     </g>
    </g>
    <g id="xtick_42">
     <g id="line2d_85">
      <g>
       <use xlink:href="#m927490b5b4" x="307.069141" y="518.6875" style="stroke: #000000; stroke-width: 0.7"/>
      </g>
     </g>
    </g>
    <g id="xtick_43">
     <g id="line2d_86">
      <g>
       <use xlink:href="#m927490b5b4" x="353.951671" y="518.6875" style="stroke: #000000; stroke-width: 0.7"/>
      </g>
     </g>
    </g>
    <g id="xtick_44">
     <g id="line2d_87">
      <g>
       <use xlink:href="#m927490b5b4" x="377.392936" y="518.6875" style="stroke: #000000; stroke-width: 0.7"/>
      </g>
     </g>
    </g>
    <g id="xtick_45">
     <g id="line2d_88">
      <g>
       <use xlink:href="#m927490b5b4" x="400.834201" y="518.6875" style="stroke: #000000; stroke-width: 0.7"/>
      </g>
     </g>
    </g>
    <g id="xtick_46">
     <g id="line2d_89">
      <g>
       <use xlink:href="#m927490b5b4" x="424.275466" y="518.6875" style="stroke: #000000; stroke-width: 0.7"/>
      </g>
     </g>
    </g>
    <g id="xtick_47">
     <g id="line2d_90">
      <g>
       <use xlink:href="#m927490b5b4" x="471.157996" y="518.6875" style="stroke: #000000; stroke-width: 0.7"/>
      </g>
     </g>
    </g>
    <g id="xtick_48">
     <g id="line2d_91">
      <g>
       <use xlink:href="#m927490b5b4" x="494.599261" y="518.6875" style="stroke: #000000; stroke-width: 0.7"/>
      </g>
     </g>
    </g>
    <g id="xtick_49">
     <g id="line2d_92">
      <g>
       <use xlink:href="#m927490b5b4" x="518.040526" y="518.6875" style="stroke: #000000; stroke-width: 0.7"/>
      </g>
     </g>
    </g>
    <g id="xtick_50">
     <g id="line2d_93">
      <g>
       <use xlink:href="#m927490b5b4" x="541.481791" y="518.6875" style="stroke: #000000; stroke-width: 0.7"/>
      </g>
     </g>
    </g>
    <g id="xtick_51">
     <g id="line2d_94">
      <g>
       <use xlink:href="#m927490b5b4" x="588.364321" y="518.6875" style="stroke: #000000; stroke-width: 0.7"/>
      </g>
     </g>
    </g>
    <g id="xtick_52">
     <g id="line2d_95">
      <g>
       <use xlink:href="#m927490b5b4" x="611.805586" y="518.6875" style="stroke: #000000; stroke-width: 0.7"/>
      </g>
     </g>
    </g>
    <g id="xtick_53">
     <g id="line2d_96">
      <g>
       <use xlink:href="#m927490b5b4" x="635.246851" y="518.6875" style="stroke: #000000; stroke-width: 0.7"/>
      </g>
     </g>
    </g>
    <g id="xtick_54">
     <g id="line2d_97">
      <g>
       <use xlink:href="#m927490b5b4" x="658.688116" y="518.6875" style="stroke: #000000; stroke-width: 0.7"/>
      </g>
     </g>
    </g>
    <g id="text_14">
     <!-- Tempo decorrido (s) -->
     <g transform="translate(323.05375 554.919375) scale(0.12 -0.12)">
      <use xlink:href="#DejaVuSerif-54"/>
      <use xlink:href="#DejaVuSerif-65" transform="translate(58.949219 0)"/>
      <use xlink:href="#DejaVuSerif-6d" transform="translate(118.128906 0)"/>
      <use xlink:href="#DejaVuSerif-70" transform="translate(212.953125 0)"/>
      <use xlink:href="#DejaVuSerif-6f" transform="translate(276.966797 0)"/>
      <use xlink:href="#DejaVuSerif-20" transform="translate(337.171875 0)"/>
      <use xlink:href="#DejaVuSerif-64" transform="translate(368.958984 0)"/>
      <use xlink:href="#DejaVuSerif-65" transform="translate(432.972656 0)"/>
      <use xlink:href="#DejaVuSerif-63" transform="translate(492.152344 0)"/>
      <use xlink:href="#DejaVuSerif-6f" transform="translate(548.158203 0)"/>
      <use xlink:href="#DejaVuSerif-72" transform="translate(608.363281 0)"/>
      <use xlink:href="#DejaVuSerif-72" transform="translate(656.166016 0)"/>
      <use xlink:href="#DejaVuSerif-69" transform="translate(703.96875 0)"/>
      <use xlink:href="#DejaVuSerif-64" transform="translate(735.951172 0)"/>
      <use xlink:href="#DejaVuSerif-6f" transform="translate(799.964844 0)"/>
      <use xlink:href="#DejaVuSerif-20" transform="translate(860.169922 0)"/>
      <use xlink:href="#DejaVuSerif-28" transform="translate(891.957031 0)"/>
      <use xlink:href="#DejaVuSerif-73" transform="translate(930.970703 0)"/>
      <use xlink:href="#DejaVuSerif-29" transform="translate(982.289062 0)"/>
     </g>
    </g>
   </g>
   <g id="matplotlib.axis_4">
    <g id="ytick_26">
     <g id="line2d_98">
      <path d="M 67.274375 493.769389 
L 701.38875 493.769389 
" clip-path="url(#p06e7394e83)" style="fill: none; stroke-dasharray: 2.22,0.96; stroke-dashoffset: 0; stroke: #b0b0b0; stroke-opacity: 0.5; stroke-width: 0.6"/>
     </g>
     <g id="line2d_99">
      <g>
       <use xlink:href="#md4cd0177d1" x="67.274375" y="493.769389" style="stroke: #000000"/>
      </g>
     </g>
     <g id="text_15">
      <!-- −100 -->
      <g transform="translate(22.81375 498.328452) scale(0.12 -0.12)">
       <defs>
        <path id="DejaVuSerif-2212" d="M 678 2259 
L 4684 2259 
L 4684 1753 
L 678 1753 
L 678 2259 
z
" transform="scale(0.015625)"/>
       </defs>
       <use xlink:href="#DejaVuSerif-2212"/>
       <use xlink:href="#DejaVuSerif-31" transform="translate(83.789062 0)"/>
       <use xlink:href="#DejaVuSerif-30" transform="translate(147.412109 0)"/>
       <use xlink:href="#DejaVuSerif-30" transform="translate(211.035156 0)"/>
      </g>
     </g>
    </g>
    <g id="ytick_27">
     <g id="line2d_100">
      <path d="M 67.274375 446.092091 
L 701.38875 446.092091 
" clip-path="url(#p06e7394e83)" style="fill: none; stroke-dasharray: 2.22,0.96; stroke-dashoffset: 0; stroke: #b0b0b0; stroke-opacity: 0.5; stroke-width: 0.6"/>
     </g>
     <g id="line2d_101">
      <g>
       <use xlink:href="#md4cd0177d1" x="67.274375" y="446.092091" style="stroke: #000000"/>
      </g>
     </g>
     <g id="text_16">
      <!-- −50 -->
      <g transform="translate(30.44875 450.651154) scale(0.12 -0.12)">
       <use xlink:href="#DejaVuSerif-2212"/>
       <use xlink:href="#DejaVuSerif-35" transform="translate(83.789062 0)"/>
       <use xlink:href="#DejaVuSerif-30" transform="translate(147.412109 0)"/>
      </g>
     </g>
    </g>
    <g id="ytick_28">
     <g id="line2d_102">
      <path d="M 67.274375 398.414793 
L 701.38875 398.414793 
" clip-path="url(#p06e7394e83)" style="fill: none; stroke-dasharray: 2.22,0.96; stroke-dashoffset: 0; stroke: #b0b0b0; stroke-opacity: 0.5; stroke-width: 0.6"/>
     </g>
     <g id="line2d_103">
      <g>
       <use xlink:href="#md4cd0177d1" x="67.274375" y="398.414793" style="stroke: #000000"/>
      </g>
     </g>
     <g id="text_17">
      <!-- 0 -->
      <g transform="translate(48.139375 402.973856) scale(0.12 -0.12)">
       <use xlink:href="#DejaVuSerif-30"/>
      </g>
     </g>
    </g>
    <g id="ytick_29">
     <g id="line2d_104">
      <path d="M 67.274375 350.737495 
L 701.38875 350.737495 
" clip-path="url(#p06e7394e83)" style="fill: none; stroke-dasharray: 2.22,0.96; stroke-dashoffset: 0; stroke: #b0b0b0; stroke-opacity: 0.5; stroke-width: 0.6"/>
     </g>
     <g id="line2d_105">
      <g>
       <use xlink:href="#md4cd0177d1" x="67.274375" y="350.737495" style="stroke: #000000"/>
      </g>
     </g>
     <g id="text_18">
      <!-- 50 -->
      <g transform="translate(40.504375 355.296558) scale(0.12 -0.12)">
       <use xlink:href="#DejaVuSerif-35"/>
       <use xlink:href="#DejaVuSerif-30" transform="translate(63.623047 0)"/>
      </g>
     </g>
    </g>
    <g id="ytick_30">
     <g id="line2d_106">
      <path d="M 67.274375 303.060197 
L 701.38875 303.060197 
" clip-path="url(#p06e7394e83)" style="fill: none; stroke-dasharray: 2.22,0.96; stroke-dashoffset: 0; stroke: #b0b0b0; stroke-opacity: 0.5; stroke-width: 0.6"/>
     </g>
     <g id="line2d_107">
      <g>
       <use xlink:href="#md4cd0177d1" x="67.274375" y="303.060197" style="stroke: #000000"/>
      </g>
     </g>
     <g id="text_19">
      <!-- 100 -->
      <g transform="translate(32.869375 307.61926) scale(0.12 -0.12)">
       <use xlink:href="#DejaVuSerif-31"/>
       <use xlink:href="#DejaVuSerif-30" transform="translate(63.623047 0)"/>
       <use xlink:href="#DejaVuSerif-30" transform="translate(127.246094 0)"/>
      </g>
     </g>
    </g>
    <g id="ytick_31">
     <g id="line2d_108">
      <g>
       <use xlink:href="#m4b961de2e2" x="67.274375" y="512.840309" style="stroke: #000000; stroke-width: 0.7"/>
      </g>
     </g>
    </g>
    <g id="ytick_32">
     <g id="line2d_109">
      <g>
       <use xlink:href="#m4b961de2e2" x="67.274375" y="503.304849" style="stroke: #000000; stroke-width: 0.7"/>
      </g>
     </g>
    </g>
    <g id="ytick_33">
     <g id="line2d_110">
      <g>
       <use xlink:href="#m4b961de2e2" x="67.274375" y="484.23393" style="stroke: #000000; stroke-width: 0.7"/>
      </g>
     </g>
    </g>
    <g id="ytick_34">
     <g id="line2d_111">
      <g>
       <use xlink:href="#m4b961de2e2" x="67.274375" y="474.69847" style="stroke: #000000; stroke-width: 0.7"/>
      </g>
     </g>
    </g>
    <g id="ytick_35">
     <g id="line2d_112">
      <g>
       <use xlink:href="#m4b961de2e2" x="67.274375" y="465.163011" style="stroke: #000000; stroke-width: 0.7"/>
      </g>
     </g>
    </g>
    <g id="ytick_36">
     <g id="line2d_113">
      <g>
       <use xlink:href="#m4b961de2e2" x="67.274375" y="455.627551" style="stroke: #000000; stroke-width: 0.7"/>
      </g>
     </g>
    </g>
    <g id="ytick_37">
     <g id="line2d_114">
      <g>
       <use xlink:href="#m4b961de2e2" x="67.274375" y="436.556632" style="stroke: #000000; stroke-width: 0.7"/>
      </g>
     </g>
    </g>
    <g id="ytick_38">
     <g id="line2d_115">
      <g>
       <use xlink:href="#m4b961de2e2" x="67.274375" y="427.021172" style="stroke: #000000; stroke-width: 0.7"/>
      </g>
     </g>
    </g>
    <g id="ytick_39">
     <g id="line2d_116">
      <g>
       <use xlink:href="#m4b961de2e2" x="67.274375" y="417.485713" style="stroke: #000000; stroke-width: 0.7"/>
      </g>
     </g>
    </g>
    <g id="ytick_40">
     <g id="line2d_117">
      <g>
       <use xlink:href="#m4b961de2e2" x="67.274375" y="407.950253" style="stroke: #000000; stroke-width: 0.7"/>
      </g>
     </g>
    </g>
    <g id="ytick_41">
     <g id="line2d_118">
      <g>
       <use xlink:href="#m4b961de2e2" x="67.274375" y="388.879334" style="stroke: #000000; stroke-width: 0.7"/>
      </g>
     </g>
    </g>
    <g id="ytick_42">
     <g id="line2d_119">
      <g>
       <use xlink:href="#m4b961de2e2" x="67.274375" y="379.343874" style="stroke: #000000; stroke-width: 0.7"/>
      </g>
     </g>
    </g>
    <g id="ytick_43">
     <g id="line2d_120">
      <g>
       <use xlink:href="#m4b961de2e2" x="67.274375" y="369.808415" style="stroke: #000000; stroke-width: 0.7"/>
      </g>
     </g>
    </g>
    <g id="ytick_44">
     <g id="line2d_121">
      <g>
       <use xlink:href="#m4b961de2e2" x="67.274375" y="360.272955" style="stroke: #000000; stroke-width: 0.7"/>
      </g>
     </g>
    </g>
    <g id="ytick_45">
     <g id="line2d_122">
      <g>
       <use xlink:href="#m4b961de2e2" x="67.274375" y="341.202036" style="stroke: #000000; stroke-width: 0.7"/>
      </g>
     </g>
    </g>
    <g id="ytick_46">
     <g id="line2d_123">
      <g>
       <use xlink:href="#m4b961de2e2" x="67.274375" y="331.666576" style="stroke: #000000; stroke-width: 0.7"/>
      </g>
     </g>
    </g>
    <g id="ytick_47">
     <g id="line2d_124">
      <g>
       <use xlink:href="#m4b961de2e2" x="67.274375" y="322.131117" style="stroke: #000000; stroke-width: 0.7"/>
      </g>
     </g>
    </g>
    <g id="ytick_48">
     <g id="line2d_125">
      <g>
       <use xlink:href="#m4b961de2e2" x="67.274375" y="312.595657" style="stroke: #000000; stroke-width: 0.7"/>
      </g>
     </g>
    </g>
    <g id="ytick_49">
     <g id="line2d_126">
      <g>
       <use xlink:href="#m4b961de2e2" x="67.274375" y="293.524738" style="stroke: #000000; stroke-width: 0.7"/>
      </g>
     </g>
    </g>
    <g id="ytick_50">
     <g id="line2d_127">
      <g>
       <use xlink:href="#m4b961de2e2" x="67.274375" y="283.989278" style="stroke: #000000; stroke-width: 0.7"/>
      </g>
     </g>
    </g>
    <g id="text_20">
     <!-- Taxa (K/min) -->
     <g transform="translate(16.318125 439.235937) rotate(-90) scale(0.12 -0.12)">
      <defs>
       <path id="DejaVuSerif-78" d="M 1863 2028 
L 2559 2988 
L 2113 2988 
L 2113 3322 
L 3391 3322 
L 3391 2988 
L 2950 2988 
L 2059 1759 
L 3097 331 
L 3531 331 
L 3531 0 
L 1997 0 
L 1997 331 
L 2419 331 
L 1697 1325 
L 972 331 
L 1403 331 
L 1403 0 
L 141 0 
L 141 331 
L 581 331 
L 1497 1594 
L 488 2988 
L 78 2988 
L 78 3322 
L 1563 3322 
L 1563 2988 
L 1166 2988 
L 1863 2028 
z
" transform="scale(0.015625)"/>
      </defs>
      <use xlink:href="#DejaVuSerif-54"/>
      <use xlink:href="#DejaVuSerif-61" transform="translate(58.949219 0)"/>
      <use xlink:href="#DejaVuSerif-78" transform="translate(118.568359 0)"/>
      <use xlink:href="#DejaVuSerif-61" transform="translate(174.964844 0)"/>
      <use xlink:href="#DejaVuSerif-20" transform="translate(234.583984 0)"/>
      <use xlink:href="#DejaVuSerif-28" transform="translate(266.371094 0)"/>
      <use xlink:href="#DejaVuSerif-4b" transform="translate(305.384766 0)"/>
      <use xlink:href="#DejaVuSerif-2f" transform="translate(380.091797 0)"/>
      <use xlink:href="#DejaVuSerif-6d" transform="translate(413.783203 0)"/>
      <use xlink:href="#DejaVuSerif-69" transform="translate(508.607422 0)"/>
      <use xlink:href="#DejaVuSerif-6e" transform="translate(540.589844 0)"/>
      <use xlink:href="#DejaVuSerif-29" transform="translate(604.994141 0)"/>
     </g>
    </g>
   </g>
   <g id="line2d_128">
    <path d="M 96.097756 419.869577 
L 101.536129 409.018882 
L 106.974503 403.470231 
L 112.412877 403.346927 
L 117.851251 405.566388 
L 123.289624 405.443084 
L 128.727998 403.100321 
L 134.166372 405.319781 
L 139.604745 407.292634 
L 145.043119 407.046029 
L 150.481493 407.292634 
L 155.919867 407.292633 
L 161.35824 406.799423 
L 166.796614 406.552815 
L 172.234988 409.265487 
L 177.673361 407.539243 
L 183.111735 407.909152 
L 188.550109 409.882004 
L 193.988483 407.046028 
L 199.426856 407.292636 
L 204.86523 407.169329 
L 210.303604 406.922722 
L 215.741977 406.922722 
L 221.180351 406.676119 
L 226.618725 406.30621 
L 232.057099 406.059597 
L 237.495472 406.182908 
L 242.933846 406.059607 
L 248.37222 403.963444 
L 253.810593 405.812994 
L 259.248967 407.415932 
L 264.687341 405.443081 
L 270.125715 405.936305 
L 275.564088 405.812994 
L 281.002462 404.703262 
L 286.440836 404.703262 
L 291.879209 405.073176 
L 297.317583 405.812994 
L 302.755957 404.703262 
L 308.194331 405.196478 
L 313.632704 404.579961 
L 319.071078 403.100325 
L 324.509452 405.443081 
L 329.947825 402.483808 
L 335.386199 401.004162 
L 340.824573 404.45665 
L 346.262947 404.210047 
L 351.70132 401.497377 
L 357.139694 401.867291 
L 362.578068 404.086755 
L 368.016441 401.374085 
L 373.454815 399.154602 
L 378.893189 403.716822 
L 384.331563 404.456669 
L 389.769936 399.771138 
L 395.20831 399.524516 
L 400.646684 401.497377 
L 406.085057 402.483808 
L 411.523431 398.661396 
L 416.961805 400.510947 
L 422.400178 404.086755 
L 427.838552 400.757568 
L 433.276926 400.141033 
L 438.7153 400.75755 
L 444.153673 401.374085 
L 449.592047 401.374066 
L 455.030421 400.141033 
L 460.468794 404.086755 
L 465.907168 405.812994 
L 471.345542 402.113894 
L 476.783916 384.481511 
L 482.222289 371.288056 
L 487.660663 382.138755 
L 493.099037 390.153473 
L 498.53741 391.386506 
L 503.975784 389.167042 
L 509.414158 388.303913 
L 514.852532 389.413645 
L 520.290905 387.934009 
L 525.729279 386.947578 
L 531.167653 387.19419 
L 536.606026 387.19419 
L 542.0444 387.440793 
L 547.482774 387.317492 
L 552.921148 387.070889 
L 558.359521 386.084458 
L 563.797895 387.070879 
L 569.236269 387.440793 
L 574.674642 385.221339 
L 580.113016 384.974731 
L 585.55139 385.837851 
L 590.989764 385.961157 
L 596.428137 385.714549 
L 601.866511 385.714549 
L 607.304885 385.591243 
L 612.743258 385.344635 
L 618.181632 385.467944 
L 623.620006 386.45437 
L 629.05838 385.098031 
L 634.496753 383.741694 
L 639.935127 385.837851 
L 645.373501 384.851425 
L 650.811874 384.851425 
L 656.250248 385.591245 
L 661.688622 385.591245 
L 667.126996 392.74284 
L 672.565369 404.086747 
" clip-path="url(#p06e7394e83)" style="fill: none; stroke: #dc143c; stroke-width: 1.2; stroke-linecap: square"/>
   </g>
   <g id="patch_8">
    <path d="M 67.274375 518.6875 
L 67.274375 282.5025 
" style="fill: none; stroke: #000000; stroke-width: 0.8; stroke-linejoin: miter; stroke-linecap: square"/>
   </g>
   <g id="patch_9">
    <path d="M 701.38875 518.6875 
L 701.38875 282.5025 
" style="fill: none; stroke: #000000; stroke-width: 0.8; stroke-linejoin: miter; stroke-linecap: square"/>
   </g>
   <g id="patch_10">
    <path d="M 67.274375 518.6875 
L 701.38875 518.6875 
" style="fill: none; stroke: #000000; stroke-width: 0.8; stroke-linejoin: miter; stroke-linecap: square"/>
   </g>
   <g id="patch_11">
    <path d="M 67.274375 282.5025 
L 701.38875 282.5025 
" style="fill: none; stroke: #000000; stroke-width: 0.8; stroke-linejoin: miter; stroke-linecap: square"/>
   </g>
  </g>
 </g>
 <defs>
  <clipPath id="p37dacef932">
   <rect x="67.274375" y="25.3575" width="634.114375" height="236.185"/>
  </clipPath>
  <clipPath id="p06e7394e83">
   <rect x="67.274375" y="282.5025" width="634.114375" height="236.185"/>
  </clipPath>
 </defs>
</svg>
